<svg width="124" height="24" viewBox="0 0 124 24" fill="none" xmlns="http://www.w3.org/2000/svg">
<path d="M10.5125 22.9606L8.15191 24L2.29764 10.9921C1.82553 9.92126 1.57373 9.70079 0.75539 9.19685L0 8.75591V7.81102H8.71846V8.75591L7.86864 9.07087C7.11325 9.32284 6.73556 9.66929 6.73556 10.1102C6.73556 10.2992 6.79851 10.5827 6.98736 11.0236L10.3237 18.8346L13.6285 11.0236C13.8173 10.5827 13.8803 10.2992 13.8803 10.1102C13.8803 9.66929 13.5026 9.32284 12.7472 9.07087L11.8974 8.75591V7.81102H18.1923V8.75591L17.1851 9.32283C16.5556 9.70079 16.1779 9.95276 15.7688 10.9291L10.5125 22.9606Z" fill="#121212"/>
<path d="M21.7069 5.22835C20.1646 5.22835 19.126 4.0315 19.126 2.61417C19.126 1.03937 20.2905 0 21.7069 0C23.1547 0 24.3193 1.03937 24.3193 2.61417C24.3193 4.12599 23.2491 5.22835 21.7069 5.22835ZM26.3966 23.6535H17.6467V22.7087L18.8427 22.1732C19.7555 21.7323 20.0073 21.3543 20.0073 20.252V13.1024C20.0073 11.622 19.724 11.1811 18.8427 10.9291L17.7411 10.5827V9.66929L23.1862 7.49606L24.036 8V20.252C24.036 21.3543 24.2878 21.7323 25.2006 22.1732L26.3966 22.7087V23.6535Z" fill="#121212"/>
<path d="M36.4409 23.6535H27.03V22.7087L28.2261 22.1732C29.1388 21.7323 29.3906 21.3228 29.3906 20.252V13.1654C29.3906 11.7165 29.1073 11.2126 28.2261 10.9606L27.1244 10.6142V9.70079L32.2233 7.49606L33.0731 8V10.9606C34.0489 8.94488 35.78 7.49606 37.3852 7.49606C38.3923 7.49606 39.431 7.90551 40.2493 8.59843L39.8087 12.5984H38.8015C37.8258 11.1181 37.2278 10.6772 36.1891 10.6772C35.3078 10.6772 34.3636 11.3701 33.4194 12.5669V20.252C33.4194 21.1969 33.7656 21.6063 35.1505 22.1732L36.4409 22.7087V23.6535Z" fill="#121212"/>
<path d="M47.2851 23.9685C44.358 23.9685 43.2564 22.5512 43.2564 18.3622V9.88976H40.8329V8.22047L43.6026 7.71654L46.3409 3.33858L47.2851 3.87402V7.81102H51.6916V9.88976H47.2851V17.6693C47.2851 20.5984 47.9461 21.6063 49.5198 21.6063C50.2123 21.6063 50.9991 21.4173 51.6601 21.1339L52.0378 22.5197C50.9677 23.3071 49.0477 23.9685 47.2851 23.9685Z" fill="#121212"/>
<path d="M59.8683 23.9685C56.3117 23.9685 54.3918 21.8268 54.3918 17.7638V13.1024C54.3918 11.685 54.1085 11.2126 53.2272 10.9291L52.1571 10.5827V9.66929L57.5707 7.49606L58.452 8.0315V17.0079C58.452 19.7795 59.4277 20.9764 61.6624 20.9764C62.6696 20.9764 63.8971 20.378 64.7154 19.5276V13.1024C64.7154 11.685 64.4321 11.2126 63.5509 10.9291L62.4807 10.5827V9.66929L67.8943 7.49606L68.7442 8.0315V19.3701C68.7442 20.4409 68.996 20.7244 70.129 20.9449L71.1992 21.1024L71.388 22.1102L66.5095 23.9685H65.7541L64.8098 21.4173C63.5823 23.0236 61.6939 23.9685 59.8683 23.9685Z" fill="#121212"/>
<path d="M80.3735 23.9685C75.5264 23.9685 72.2216 20.7244 72.2216 15.7165C72.2216 11.0236 75.7782 7.49606 80.3735 7.49606C85.2521 7.49606 88.5254 10.7717 88.5254 15.7795C88.5254 20.4724 84.9688 23.9685 80.3735 23.9685ZM80.3735 22.2362C82.7341 22.2362 84.1505 19.8425 84.1505 15.7795C84.1505 11.685 82.7341 9.22835 80.3735 9.22835C78.0444 9.22835 76.5966 11.6535 76.5966 15.7165C76.5966 19.7795 78.0444 22.2362 80.3735 22.2362Z" fill="#121212"/>
<path d="M96.0326 23.9685C93.9868 23.9685 91.7521 23.4016 90.1783 22.3307L90.619 18.3307H91.6262L92.4445 19.7795C93.4517 21.4488 94.5848 22.2362 96.2529 22.2362C97.7952 22.2362 98.8339 21.4803 98.8339 20.126C98.8339 19.0551 98.1414 18.2362 94.8995 16.9134C91.8465 15.685 90.4931 14.1417 90.4931 12.063C90.4931 9.29134 92.8222 7.49606 96.3474 7.49606C98.2673 7.49606 100.376 7.93701 101.792 8.59843L101.415 12.315H100.376C99.9669 11.5591 99.5263 10.9921 99.0227 10.3937C98.3617 9.6378 97.4175 9.22835 96.4103 9.22835C94.8995 9.22835 94.0182 9.88976 94.0182 10.8976C94.0182 12.0315 94.8051 12.6614 98.047 14.0787C101.352 15.5276 102.485 16.9764 102.485 18.9606C102.485 21.9528 99.8096 23.9685 96.0326 23.9685Z" fill="#121212"/>
<path d="M108.896 23.9685C105.906 23.9685 103.955 22.2362 103.955 19.5906C103.955 17.5433 105.34 15.9685 107.669 15.1496C109.274 14.5512 111.194 14.2677 113.208 14.1417V13.3543C113.208 10.5512 112.327 9.32283 110.565 9.32283C109.746 9.32283 108.991 9.48032 108.456 9.92126C107.984 10.2677 107.606 10.8661 107.008 12.5984H105.56L104.49 9.6378C106.788 8.09449 108.77 7.49606 111.1 7.49606C115.317 7.49606 117.237 9.22835 117.237 13.4803V19.3701C117.237 20.4409 117.489 20.7244 118.622 20.9449L119.692 21.1024L119.881 22.1102L115.002 23.9685H114.247L113.366 21.5748C112.296 23.0236 110.565 23.9685 108.896 23.9685ZM110.502 21.1968C111.446 21.1968 112.453 20.7559 113.208 19.874V15.6535C112.17 15.7165 111.225 15.874 110.502 16.0945C108.959 16.5354 108.11 17.4803 108.11 18.8661C108.11 20.252 109.085 21.1968 110.502 21.1968Z" fill="#121212"/>
<path d="M119.883 0.769668C120.512 2.71954 122.051 4.25957 124 4.88954V5.50782C122.051 6.13777 120.512 7.67804 119.883 9.62794H119.265C118.636 7.67804 117.096 6.13777 115.148 5.50782V4.88954C117.096 4.25957 118.636 2.71954 119.265 0.769668H119.883Z" fill="#121212"/>
</svg>
